<mxfile host="app.diagrams.net" modified="2022-11-09T16:38:11.076Z" agent="5.0 (Windows NT 10.0; Win64; x64) AppleWebKit/537.36 (KHTML, like Gecko) Chrome/107.0.0.0 Safari/537.36" etag="jCwZ4LH09x6YaIseo4dd" version="20.5.3" type="github">
  <diagram id="C5RBs43oDa-KdzZeNtuy" name="Page-1">
    <mxGraphModel dx="981" dy="548" grid="1" gridSize="10" guides="1" tooltips="1" connect="1" arrows="1" fold="1" page="1" pageScale="1" pageWidth="827" pageHeight="1169" math="0" shadow="0">
      <root>
        <mxCell id="WIyWlLk6GJQsqaUBKTNV-0" />
        <mxCell id="WIyWlLk6GJQsqaUBKTNV-1" parent="WIyWlLk6GJQsqaUBKTNV-0" />
        <mxCell id="MK1zx52-jrZ4IHoqgm-s-22" value="" style="group" vertex="1" connectable="0" parent="WIyWlLk6GJQsqaUBKTNV-1">
          <mxGeometry x="680" y="390" width="190" height="80" as="geometry" />
        </mxCell>
        <mxCell id="MK1zx52-jrZ4IHoqgm-s-12" value="+ customSort(List&amp;lt;Person&amp;gt;): void" style="rounded=0;whiteSpace=wrap;html=1;verticalAlign=top;align=left;" vertex="1" parent="MK1zx52-jrZ4IHoqgm-s-22">
          <mxGeometry y="40" width="190" height="40" as="geometry" />
        </mxCell>
        <mxCell id="MK1zx52-jrZ4IHoqgm-s-13" value="&lt;i&gt;NameSortStrategy&lt;/i&gt;" style="rounded=0;whiteSpace=wrap;html=1;align=center;" vertex="1" parent="MK1zx52-jrZ4IHoqgm-s-22">
          <mxGeometry width="190" height="40" as="geometry" />
        </mxCell>
        <mxCell id="MK1zx52-jrZ4IHoqgm-s-26" value="" style="group" vertex="1" connectable="0" parent="WIyWlLk6GJQsqaUBKTNV-1">
          <mxGeometry x="683" y="490" width="190" height="80" as="geometry" />
        </mxCell>
        <mxCell id="MK1zx52-jrZ4IHoqgm-s-18" value="+ customSort(List&amp;lt;Person&amp;gt;): void" style="rounded=0;whiteSpace=wrap;html=1;align=left;" vertex="1" parent="MK1zx52-jrZ4IHoqgm-s-26">
          <mxGeometry y="40" width="190" height="40" as="geometry" />
        </mxCell>
        <mxCell id="MK1zx52-jrZ4IHoqgm-s-19" value="&lt;i&gt;HeightSortStrategy&lt;/i&gt;" style="rounded=0;whiteSpace=wrap;html=1;align=center;" vertex="1" parent="MK1zx52-jrZ4IHoqgm-s-26">
          <mxGeometry width="190" height="40" as="geometry" />
        </mxCell>
        <mxCell id="MK1zx52-jrZ4IHoqgm-s-27" value="" style="group;align=left;" vertex="1" connectable="0" parent="WIyWlLk6GJQsqaUBKTNV-1">
          <mxGeometry x="680" y="290" width="190" height="80" as="geometry" />
        </mxCell>
        <mxCell id="MK1zx52-jrZ4IHoqgm-s-14" value="+ customSort(List&amp;lt;Person&amp;gt;): void" style="rounded=0;whiteSpace=wrap;html=1;container=0;align=left;" vertex="1" parent="MK1zx52-jrZ4IHoqgm-s-27">
          <mxGeometry y="40" width="190" height="40" as="geometry" />
        </mxCell>
        <mxCell id="MK1zx52-jrZ4IHoqgm-s-15" value="&lt;i&gt;AgeSortStrategy&lt;/i&gt;" style="rounded=0;whiteSpace=wrap;html=1;align=center;" vertex="1" parent="MK1zx52-jrZ4IHoqgm-s-27">
          <mxGeometry width="190" height="40" as="geometry" />
        </mxCell>
        <mxCell id="MK1zx52-jrZ4IHoqgm-s-31" value="" style="group" vertex="1" connectable="0" parent="WIyWlLk6GJQsqaUBKTNV-1">
          <mxGeometry x="390" y="380" width="190" height="80" as="geometry" />
        </mxCell>
        <mxCell id="MK1zx52-jrZ4IHoqgm-s-20" value="+ main(String[]): void" style="rounded=0;whiteSpace=wrap;html=1;align=left;verticalAlign=top;" vertex="1" parent="MK1zx52-jrZ4IHoqgm-s-31">
          <mxGeometry y="40" width="190" height="40" as="geometry" />
        </mxCell>
        <mxCell id="MK1zx52-jrZ4IHoqgm-s-21" value="&lt;i&gt;Main&lt;/i&gt;" style="rounded=0;whiteSpace=wrap;html=1;align=center;" vertex="1" parent="MK1zx52-jrZ4IHoqgm-s-31">
          <mxGeometry width="190" height="40" as="geometry" />
        </mxCell>
        <mxCell id="MK1zx52-jrZ4IHoqgm-s-41" value="" style="group" vertex="1" connectable="0" parent="WIyWlLk6GJQsqaUBKTNV-1">
          <mxGeometry x="80" y="340" width="190" height="240" as="geometry" />
        </mxCell>
        <mxCell id="MK1zx52-jrZ4IHoqgm-s-38" value="+ getName(): String&lt;br&gt;+ setName(String): void&lt;br&gt;+ getAge(): Integer&lt;br&gt;+ setAge(Integer): void&lt;br&gt;+ getHeight(): Integer&lt;br&gt;+ setHeight(): void&lt;br&gt;+getWeight(): Integer&lt;br&gt;&lt;div style=&quot;&quot;&gt;&lt;span style=&quot;background-color: initial;&quot;&gt;+setWeight(Integer): void&lt;/span&gt;&lt;/div&gt;" style="rounded=0;whiteSpace=wrap;html=1;verticalAlign=top;align=left;" vertex="1" parent="MK1zx52-jrZ4IHoqgm-s-41">
          <mxGeometry y="110" width="190" height="130" as="geometry" />
        </mxCell>
        <mxCell id="MK1zx52-jrZ4IHoqgm-s-39" value="- name: String&lt;br&gt;- age: Integer&lt;br&gt;- height: Integer&lt;br&gt;- weight: Integer&lt;br&gt;" style="rounded=0;whiteSpace=wrap;html=1;align=left;verticalAlign=top;" vertex="1" parent="MK1zx52-jrZ4IHoqgm-s-41">
          <mxGeometry y="30" width="190" height="80" as="geometry" />
        </mxCell>
        <mxCell id="MK1zx52-jrZ4IHoqgm-s-40" value="Person" style="rounded=0;whiteSpace=wrap;html=1;verticalAlign=top;" vertex="1" parent="MK1zx52-jrZ4IHoqgm-s-41">
          <mxGeometry width="190" height="30" as="geometry" />
        </mxCell>
        <mxCell id="MK1zx52-jrZ4IHoqgm-s-42" value="" style="group" vertex="1" connectable="0" parent="WIyWlLk6GJQsqaUBKTNV-1">
          <mxGeometry x="90" y="140" width="190" height="140" as="geometry" />
        </mxCell>
        <mxCell id="MK1zx52-jrZ4IHoqgm-s-36" value="+ People()&lt;br&gt;+ setSortStrate(SortStrategy): void&lt;br&gt;+ addMember(Person): void&lt;br&gt;+ print(PrintStream): void" style="rounded=0;whiteSpace=wrap;html=1;verticalAlign=top;align=left;" vertex="1" parent="MK1zx52-jrZ4IHoqgm-s-42">
          <mxGeometry y="70" width="190" height="70" as="geometry" />
        </mxCell>
        <mxCell id="MK1zx52-jrZ4IHoqgm-s-33" value="- members: List&amp;lt;Person&amp;gt;&lt;br&gt;-sortStrategy: SortStrategy" style="rounded=0;whiteSpace=wrap;html=1;align=left;verticalAlign=top;" vertex="1" parent="MK1zx52-jrZ4IHoqgm-s-42">
          <mxGeometry y="30" width="190" height="40" as="geometry" />
        </mxCell>
        <mxCell id="MK1zx52-jrZ4IHoqgm-s-37" value="People" style="rounded=0;whiteSpace=wrap;html=1;verticalAlign=top;" vertex="1" parent="MK1zx52-jrZ4IHoqgm-s-42">
          <mxGeometry width="190" height="30" as="geometry" />
        </mxCell>
        <mxCell id="MK1zx52-jrZ4IHoqgm-s-30" value="" style="group" vertex="1" connectable="0" parent="WIyWlLk6GJQsqaUBKTNV-1">
          <mxGeometry x="380" y="220" width="190" height="80" as="geometry" />
        </mxCell>
        <mxCell id="MK1zx52-jrZ4IHoqgm-s-10" value="+ customSort(List&amp;lt;Person&amp;gt;): void" style="rounded=0;whiteSpace=wrap;html=1;verticalAlign=top;align=left;" vertex="1" parent="MK1zx52-jrZ4IHoqgm-s-30">
          <mxGeometry y="40" width="190" height="40" as="geometry" />
        </mxCell>
        <mxCell id="MK1zx52-jrZ4IHoqgm-s-11" value="&lt;i&gt;&amp;lt;&amp;lt;Interface&amp;gt;&amp;gt;&lt;br&gt;&lt;/i&gt;&lt;div style=&quot;&quot;&gt;&lt;span style=&quot;background-color: initial;&quot;&gt;&lt;i&gt;SortStrategy&lt;/i&gt;&lt;/span&gt;&lt;/div&gt;" style="rounded=0;whiteSpace=wrap;html=1;align=center;" vertex="1" parent="MK1zx52-jrZ4IHoqgm-s-30">
          <mxGeometry width="190" height="40" as="geometry" />
        </mxCell>
        <mxCell id="MK1zx52-jrZ4IHoqgm-s-43" value="" style="group" vertex="1" connectable="0" parent="WIyWlLk6GJQsqaUBKTNV-1">
          <mxGeometry x="680" y="190" width="190" height="80" as="geometry" />
        </mxCell>
        <mxCell id="MK1zx52-jrZ4IHoqgm-s-16" value="+ customSort(List&amp;lt;Person&amp;gt;): void" style="rounded=0;whiteSpace=wrap;html=1;align=left;" vertex="1" parent="MK1zx52-jrZ4IHoqgm-s-43">
          <mxGeometry y="40" width="190" height="40" as="geometry" />
        </mxCell>
        <mxCell id="MK1zx52-jrZ4IHoqgm-s-49" style="edgeStyle=orthogonalEdgeStyle;rounded=0;orthogonalLoop=1;jettySize=auto;html=1;exitX=0.5;exitY=1;exitDx=0;exitDy=0;dashed=1;" edge="1" parent="MK1zx52-jrZ4IHoqgm-s-43" source="MK1zx52-jrZ4IHoqgm-s-17" target="MK1zx52-jrZ4IHoqgm-s-16">
          <mxGeometry relative="1" as="geometry" />
        </mxCell>
        <mxCell id="MK1zx52-jrZ4IHoqgm-s-17" value="&lt;i&gt;WeightStrategy&lt;/i&gt;" style="rounded=0;whiteSpace=wrap;html=1;align=center;" vertex="1" parent="MK1zx52-jrZ4IHoqgm-s-43">
          <mxGeometry width="190" height="40" as="geometry" />
        </mxCell>
        <mxCell id="MK1zx52-jrZ4IHoqgm-s-45" value="" style="endArrow=classic;html=1;rounded=0;edgeStyle=orthogonalEdgeStyle;dashed=1;entryX=1;entryY=0.5;entryDx=0;entryDy=0;" edge="1" parent="WIyWlLk6GJQsqaUBKTNV-1" target="MK1zx52-jrZ4IHoqgm-s-18">
          <mxGeometry width="50" height="50" relative="1" as="geometry">
            <mxPoint x="520" y="460" as="sourcePoint" />
            <mxPoint x="923" y="550" as="targetPoint" />
            <Array as="points">
              <mxPoint x="520" y="620" />
              <mxPoint x="910" y="620" />
              <mxPoint x="910" y="550" />
            </Array>
          </mxGeometry>
        </mxCell>
        <mxCell id="MK1zx52-jrZ4IHoqgm-s-46" value="" style="endArrow=classic;html=1;rounded=0;edgeStyle=orthogonalEdgeStyle;dashed=1;entryX=0.998;entryY=0.653;entryDx=0;entryDy=0;entryPerimeter=0;exitX=0.458;exitY=1.041;exitDx=0;exitDy=0;exitPerimeter=0;" edge="1" parent="WIyWlLk6GJQsqaUBKTNV-1" source="MK1zx52-jrZ4IHoqgm-s-20" target="MK1zx52-jrZ4IHoqgm-s-12">
          <mxGeometry width="50" height="50" relative="1" as="geometry">
            <mxPoint x="460" y="490" as="sourcePoint" />
            <mxPoint x="730" y="440" as="targetPoint" />
            <Array as="points">
              <mxPoint x="476" y="462" />
              <mxPoint x="476" y="640" />
              <mxPoint x="930" y="640" />
              <mxPoint x="930" y="456" />
            </Array>
          </mxGeometry>
        </mxCell>
        <mxCell id="MK1zx52-jrZ4IHoqgm-s-47" value="" style="endArrow=classic;html=1;rounded=0;edgeStyle=orthogonalEdgeStyle;dashed=1;entryX=1.009;entryY=0.653;entryDx=0;entryDy=0;entryPerimeter=0;" edge="1" parent="WIyWlLk6GJQsqaUBKTNV-1" target="MK1zx52-jrZ4IHoqgm-s-14">
          <mxGeometry width="50" height="50" relative="1" as="geometry">
            <mxPoint x="460" y="460" as="sourcePoint" />
            <mxPoint x="730" y="360" as="targetPoint" />
            <Array as="points">
              <mxPoint x="455" y="660" />
              <mxPoint x="950" y="660" />
              <mxPoint x="950" y="356" />
            </Array>
          </mxGeometry>
        </mxCell>
        <mxCell id="MK1zx52-jrZ4IHoqgm-s-48" value="" style="endArrow=classic;html=1;rounded=0;edgeStyle=orthogonalEdgeStyle;dashed=1;" edge="1" parent="WIyWlLk6GJQsqaUBKTNV-1">
          <mxGeometry width="50" height="50" relative="1" as="geometry">
            <mxPoint x="424" y="460" as="sourcePoint" />
            <mxPoint x="870" y="250" as="targetPoint" />
            <Array as="points">
              <mxPoint x="424" y="680" />
              <mxPoint x="980" y="680" />
              <mxPoint x="980" y="250" />
            </Array>
          </mxGeometry>
        </mxCell>
        <mxCell id="MK1zx52-jrZ4IHoqgm-s-51" value="" style="endArrow=classic;html=1;rounded=0;dashed=1;exitX=0;exitY=1;exitDx=0;exitDy=0;entryX=0.913;entryY=0.989;entryDx=0;entryDy=0;entryPerimeter=0;" edge="1" parent="WIyWlLk6GJQsqaUBKTNV-1" source="MK1zx52-jrZ4IHoqgm-s-19" target="MK1zx52-jrZ4IHoqgm-s-10">
          <mxGeometry width="50" height="50" relative="1" as="geometry">
            <mxPoint x="490" y="420" as="sourcePoint" />
            <mxPoint x="540" y="370" as="targetPoint" />
          </mxGeometry>
        </mxCell>
        <mxCell id="MK1zx52-jrZ4IHoqgm-s-52" value="" style="endArrow=classic;html=1;rounded=0;dashed=1;exitX=0;exitY=1;exitDx=0;exitDy=0;entryX=1;entryY=0.5;entryDx=0;entryDy=0;" edge="1" parent="WIyWlLk6GJQsqaUBKTNV-1" target="MK1zx52-jrZ4IHoqgm-s-10">
          <mxGeometry width="50" height="50" relative="1" as="geometry">
            <mxPoint x="679.9999999999998" y="440" as="sourcePoint" />
            <mxPoint x="567" y="190" as="targetPoint" />
          </mxGeometry>
        </mxCell>
        <mxCell id="MK1zx52-jrZ4IHoqgm-s-53" value="" style="endArrow=classic;html=1;rounded=0;dashed=1;exitX=0;exitY=1;exitDx=0;exitDy=0;" edge="1" parent="WIyWlLk6GJQsqaUBKTNV-1">
          <mxGeometry width="50" height="50" relative="1" as="geometry">
            <mxPoint x="679.9999999999998" y="340" as="sourcePoint" />
            <mxPoint x="570" y="270" as="targetPoint" />
          </mxGeometry>
        </mxCell>
        <mxCell id="MK1zx52-jrZ4IHoqgm-s-54" value="" style="endArrow=classic;html=1;rounded=0;dashed=1;exitX=0;exitY=1;exitDx=0;exitDy=0;entryX=1;entryY=0.75;entryDx=0;entryDy=0;" edge="1" parent="WIyWlLk6GJQsqaUBKTNV-1" target="MK1zx52-jrZ4IHoqgm-s-11">
          <mxGeometry width="50" height="50" relative="1" as="geometry">
            <mxPoint x="679.9999999999998" y="240" as="sourcePoint" />
            <mxPoint x="567" y="-10" as="targetPoint" />
          </mxGeometry>
        </mxCell>
        <mxCell id="MK1zx52-jrZ4IHoqgm-s-65" value="" style="rhombus;whiteSpace=wrap;html=1;" vertex="1" parent="WIyWlLk6GJQsqaUBKTNV-1">
          <mxGeometry x="280" y="210" width="20" height="10" as="geometry" />
        </mxCell>
        <mxCell id="MK1zx52-jrZ4IHoqgm-s-66" value="" style="endArrow=classic;html=1;rounded=0;exitX=1;exitY=0.5;exitDx=0;exitDy=0;entryX=-0.009;entryY=0.903;entryDx=0;entryDy=0;entryPerimeter=0;" edge="1" parent="WIyWlLk6GJQsqaUBKTNV-1" source="MK1zx52-jrZ4IHoqgm-s-65" target="MK1zx52-jrZ4IHoqgm-s-11">
          <mxGeometry width="50" height="50" relative="1" as="geometry">
            <mxPoint x="490" y="300" as="sourcePoint" />
            <mxPoint x="540" y="250" as="targetPoint" />
            <Array as="points">
              <mxPoint x="300" y="240" />
              <mxPoint x="300" y="256" />
            </Array>
          </mxGeometry>
        </mxCell>
        <mxCell id="MK1zx52-jrZ4IHoqgm-s-67" value="" style="endArrow=classic;html=1;rounded=0;entryX=-0.009;entryY=0.903;entryDx=0;entryDy=0;entryPerimeter=0;" edge="1" parent="WIyWlLk6GJQsqaUBKTNV-1" target="MK1zx52-jrZ4IHoqgm-s-11">
          <mxGeometry width="50" height="50" relative="1" as="geometry">
            <mxPoint x="300" y="215" as="sourcePoint" />
            <mxPoint x="378.2900000000002" y="256.12" as="targetPoint" />
            <Array as="points">
              <mxPoint x="300" y="256" />
              <mxPoint x="340" y="256" />
            </Array>
          </mxGeometry>
        </mxCell>
        <mxCell id="MK1zx52-jrZ4IHoqgm-s-68" value="" style="rhombus;whiteSpace=wrap;html=1;rotation=0;" vertex="1" parent="WIyWlLk6GJQsqaUBKTNV-1">
          <mxGeometry x="165" y="280" width="15" height="20" as="geometry" />
        </mxCell>
        <mxCell id="MK1zx52-jrZ4IHoqgm-s-69" value="" style="endArrow=classic;html=1;rounded=0;exitX=0.5;exitY=1;exitDx=0;exitDy=0;" edge="1" parent="WIyWlLk6GJQsqaUBKTNV-1" source="MK1zx52-jrZ4IHoqgm-s-68">
          <mxGeometry width="50" height="50" relative="1" as="geometry">
            <mxPoint x="390" y="310" as="sourcePoint" />
            <mxPoint x="173" y="340" as="targetPoint" />
          </mxGeometry>
        </mxCell>
        <mxCell id="MK1zx52-jrZ4IHoqgm-s-81" style="edgeStyle=none;rounded=0;orthogonalLoop=1;jettySize=auto;html=1;exitX=0.5;exitY=0;exitDx=0;exitDy=0;entryX=-0.016;entryY=0.396;entryDx=0;entryDy=0;entryPerimeter=0;" edge="1" parent="WIyWlLk6GJQsqaUBKTNV-1" source="MK1zx52-jrZ4IHoqgm-s-70" target="MK1zx52-jrZ4IHoqgm-s-39">
          <mxGeometry relative="1" as="geometry">
            <mxPoint x="472.5" y="70" as="targetPoint" />
            <Array as="points">
              <mxPoint x="473" y="120" />
              <mxPoint x="30" y="120" />
              <mxPoint x="30" y="340" />
              <mxPoint x="30" y="400" />
            </Array>
          </mxGeometry>
        </mxCell>
        <mxCell id="MK1zx52-jrZ4IHoqgm-s-70" value="" style="rhombus;whiteSpace=wrap;html=1;" vertex="1" parent="WIyWlLk6GJQsqaUBKTNV-1">
          <mxGeometry x="465" y="200" width="15" height="20" as="geometry" />
        </mxCell>
        <mxCell id="MK1zx52-jrZ4IHoqgm-s-73" style="edgeStyle=none;rounded=0;orthogonalLoop=1;jettySize=auto;html=1;exitX=0;exitY=0.75;exitDx=0;exitDy=0;entryX=1;entryY=0.5;entryDx=0;entryDy=0;" edge="1" parent="WIyWlLk6GJQsqaUBKTNV-1" source="MK1zx52-jrZ4IHoqgm-s-21" target="MK1zx52-jrZ4IHoqgm-s-39">
          <mxGeometry relative="1" as="geometry" />
        </mxCell>
        <mxCell id="MK1zx52-jrZ4IHoqgm-s-75" style="edgeStyle=none;rounded=0;orthogonalLoop=1;jettySize=auto;html=1;exitX=0;exitY=0;exitDx=0;exitDy=0;entryX=0.846;entryY=1.033;entryDx=0;entryDy=0;entryPerimeter=0;" edge="1" parent="WIyWlLk6GJQsqaUBKTNV-1" source="MK1zx52-jrZ4IHoqgm-s-21" target="MK1zx52-jrZ4IHoqgm-s-36">
          <mxGeometry relative="1" as="geometry">
            <Array as="points">
              <mxPoint x="330" y="380" />
              <mxPoint x="330" y="310" />
              <mxPoint x="250" y="310" />
            </Array>
          </mxGeometry>
        </mxCell>
      </root>
    </mxGraphModel>
  </diagram>
</mxfile>
